<svg id="visual" viewBox="0 0 900 100" width="900" height="100" xmlns="http://www.w3.org/2000/svg" xmlns:xlink="http://www.w3.org/1999/xlink" version="1.1"><rect x="0" y="0" width="900" height="100" fill="#121214"></rect><path d="M0 34L21.5 35.8C43 37.7 86 41.3 128.8 40.7C171.7 40 214.3 35 257.2 31.3C300 27.7 343 25.3 385.8 25.2C428.7 25 471.3 27 514.2 27.8C557 28.7 600 28.3 642.8 28.2C685.7 28 728.3 28 771.2 26.8C814 25.7 857 23.3 878.5 22.2L900 21L900 101L878.5 101C857 101 814 101 771.2 101C728.3 101 685.7 101 642.8 101C600 101 557 101 514.2 101C471.3 101 428.7 101 385.8 101C343 101 300 101 257.2 101C214.3 101 171.7 101 128.8 101C86 101 43 101 21.5 101L0 101Z" fill="#2ba84a"></path><path d="M0 52L21.5 50.7C43 49.3 86 46.7 128.8 45.5C171.7 44.3 214.3 44.7 257.2 43.2C300 41.7 343 38.3 385.8 39.5C428.7 40.7 471.3 46.3 514.2 47.5C557 48.7 600 45.3 642.8 42.8C685.7 40.3 728.3 38.7 771.2 38.8C814 39 857 41 878.5 42L900 43L900 101L878.5 101C857 101 814 101 771.2 101C728.3 101 685.7 101 642.8 101C600 101 557 101 514.2 101C471.3 101 428.7 101 385.8 101C343 101 300 101 257.2 101C214.3 101 171.7 101 128.8 101C86 101 43 101 21.5 101L0 101Z" fill="#2a9e44"></path><path d="M0 46L21.5 48.8C43 51.7 86 57.3 128.8 58C171.7 58.7 214.3 54.3 257.2 55C300 55.7 343 61.3 385.8 62C428.7 62.7 471.3 58.3 514.2 55.2C557 52 600 50 642.8 51.8C685.7 53.7 728.3 59.3 771.2 62C814 64.7 857 64.3 878.5 64.2L900 64L900 101L878.5 101C857 101 814 101 771.2 101C728.3 101 685.7 101 642.8 101C600 101 557 101 514.2 101C471.3 101 428.7 101 385.8 101C343 101 300 101 257.2 101C214.3 101 171.7 101 128.8 101C86 101 43 101 21.5 101L0 101Z" fill="#28953e"></path><path d="M0 80L21.5 79.2C43 78.3 86 76.7 128.8 74C171.7 71.3 214.3 67.7 257.2 65.2C300 62.7 343 61.3 385.8 61.5C428.7 61.7 471.3 63.3 514.2 65.8C557 68.3 600 71.7 642.8 72.3C685.7 73 728.3 71 771.2 69.8C814 68.7 857 68.3 878.5 68.2L900 68L900 101L878.5 101C857 101 814 101 771.2 101C728.3 101 685.7 101 642.8 101C600 101 557 101 514.2 101C471.3 101 428.7 101 385.8 101C343 101 300 101 257.2 101C214.3 101 171.7 101 128.8 101C86 101 43 101 21.5 101L0 101Z" fill="#268b38"></path><path d="M0 76L21.5 76.2C43 76.3 86 76.7 128.8 77.7C171.7 78.7 214.3 80.3 257.2 81.8C300 83.3 343 84.7 385.8 84.2C428.7 83.7 471.3 81.3 514.2 81.5C557 81.7 600 84.3 642.8 86.2C685.7 88 728.3 89 771.2 87.7C814 86.3 857 82.7 878.5 80.8L900 79L900 101L878.5 101C857 101 814 101 771.2 101C728.3 101 685.7 101 642.8 101C600 101 557 101 514.2 101C471.3 101 428.7 101 385.8 101C343 101 300 101 257.2 101C214.3 101 171.7 101 128.8 101C86 101 43 101 21.5 101L0 101Z" fill="#248232"></path></svg>